<mxfile host="app.diagrams.net" modified="2024-03-14T02:11:08.338Z" agent="Mozilla/5.0 (Windows NT 10.0; Win64; x64) AppleWebKit/537.36 (KHTML, like Gecko) Chrome/122.0.0.0 Safari/537.36" etag="iSkNwQebJsqbnk-Jzdkk" version="24.0.6" type="device">
  <diagram name="Page-1" id="f1b7ffb7-ca1e-a977-7cf5-a751b3c06c05">
    <mxGraphModel dx="2647" dy="1260" grid="1" gridSize="10" guides="1" tooltips="1" connect="1" arrows="1" fold="1" page="1" pageScale="1" pageWidth="826" pageHeight="1169" background="none" math="0" shadow="0">
      <root>
        <mxCell id="0" />
        <mxCell id="1" parent="0" />
        <mxCell id="qfFioo9fjU9TVqREYKtZ-2" style="edgeStyle=orthogonalEdgeStyle;rounded=0;orthogonalLoop=1;jettySize=auto;html=1;exitX=1;exitY=0.25;exitDx=0;exitDy=0;entryX=0;entryY=0.5;entryDx=0;entryDy=0;" edge="1" parent="1" source="dO-Ke5plsGIxC5qf2pMP-61" target="qfFioo9fjU9TVqREYKtZ-1">
          <mxGeometry relative="1" as="geometry">
            <Array as="points">
              <mxPoint x="930" y="290" />
              <mxPoint x="930" y="275" />
            </Array>
          </mxGeometry>
        </mxCell>
        <mxCell id="qfFioo9fjU9TVqREYKtZ-5" style="edgeStyle=orthogonalEdgeStyle;rounded=0;orthogonalLoop=1;jettySize=auto;html=1;exitX=1;exitY=0.25;exitDx=0;exitDy=0;" edge="1" parent="1" source="dO-Ke5plsGIxC5qf2pMP-61" target="qfFioo9fjU9TVqREYKtZ-3">
          <mxGeometry relative="1" as="geometry">
            <mxPoint x="940" y="370" as="targetPoint" />
            <Array as="points">
              <mxPoint x="860" y="290" />
              <mxPoint x="860" y="360" />
              <mxPoint x="1070" y="360" />
            </Array>
          </mxGeometry>
        </mxCell>
        <mxCell id="dO-Ke5plsGIxC5qf2pMP-61" value="" style="rounded=1;whiteSpace=wrap;html=1;arcSize=7;" parent="1" vertex="1">
          <mxGeometry width="820" height="1160" as="geometry" />
        </mxCell>
        <mxCell id="dO-Ke5plsGIxC5qf2pMP-62" value="" style="rounded=1;whiteSpace=wrap;html=1;" parent="1" vertex="1">
          <mxGeometry x="30" y="220" width="620" height="160" as="geometry" />
        </mxCell>
        <mxCell id="dO-Ke5plsGIxC5qf2pMP-63" value="&lt;font style=&quot;font-size: 25px;&quot;&gt;Information about activity&lt;/font&gt;" style="rounded=1;whiteSpace=wrap;html=1;" parent="1" vertex="1">
          <mxGeometry x="200" y="230" width="430" height="140" as="geometry" />
        </mxCell>
        <mxCell id="qfFioo9fjU9TVqREYKtZ-9" style="edgeStyle=orthogonalEdgeStyle;rounded=0;orthogonalLoop=1;jettySize=auto;html=1;exitX=1;exitY=0.25;exitDx=0;exitDy=0;entryX=0;entryY=0.5;entryDx=0;entryDy=0;" edge="1" parent="1" source="dO-Ke5plsGIxC5qf2pMP-65" target="qfFioo9fjU9TVqREYKtZ-7">
          <mxGeometry relative="1" as="geometry">
            <Array as="points">
              <mxPoint x="870" y="440" />
              <mxPoint x="870" y="465" />
            </Array>
          </mxGeometry>
        </mxCell>
        <mxCell id="dO-Ke5plsGIxC5qf2pMP-65" value="" style="rounded=1;whiteSpace=wrap;html=1;" parent="1" vertex="1">
          <mxGeometry x="30" y="400" width="620" height="160" as="geometry" />
        </mxCell>
        <mxCell id="qfFioo9fjU9TVqREYKtZ-8" style="edgeStyle=orthogonalEdgeStyle;rounded=0;orthogonalLoop=1;jettySize=auto;html=1;exitX=1;exitY=0.5;exitDx=0;exitDy=0;entryX=0;entryY=0.5;entryDx=0;entryDy=0;" edge="1" parent="1" source="dO-Ke5plsGIxC5qf2pMP-66" target="qfFioo9fjU9TVqREYKtZ-7">
          <mxGeometry relative="1" as="geometry">
            <Array as="points">
              <mxPoint x="870" y="480" />
              <mxPoint x="870" y="465" />
            </Array>
          </mxGeometry>
        </mxCell>
        <mxCell id="dO-Ke5plsGIxC5qf2pMP-66" value="&lt;font style=&quot;font-size: 25px;&quot;&gt;Information about activity&lt;/font&gt;" style="rounded=1;whiteSpace=wrap;html=1;" parent="1" vertex="1">
          <mxGeometry x="200" y="410" width="430" height="140" as="geometry" />
        </mxCell>
        <mxCell id="dO-Ke5plsGIxC5qf2pMP-67" value="" style="rounded=1;whiteSpace=wrap;html=1;" parent="1" vertex="1">
          <mxGeometry x="30" y="585" width="620" height="160" as="geometry" />
        </mxCell>
        <mxCell id="dO-Ke5plsGIxC5qf2pMP-68" value="&lt;font style=&quot;font-size: 25px;&quot;&gt;Information about activity&lt;/font&gt;" style="rounded=1;whiteSpace=wrap;html=1;" parent="1" vertex="1">
          <mxGeometry x="200" y="595" width="430" height="140" as="geometry" />
        </mxCell>
        <mxCell id="dO-Ke5plsGIxC5qf2pMP-69" value="" style="rounded=1;whiteSpace=wrap;html=1;" parent="1" vertex="1">
          <mxGeometry x="30" y="770" width="620" height="160" as="geometry" />
        </mxCell>
        <mxCell id="dO-Ke5plsGIxC5qf2pMP-70" value="&lt;font style=&quot;font-size: 25px;&quot;&gt;Information about activity&lt;/font&gt;" style="rounded=1;whiteSpace=wrap;html=1;" parent="1" vertex="1">
          <mxGeometry x="200" y="780" width="430" height="140" as="geometry" />
        </mxCell>
        <mxCell id="dO-Ke5plsGIxC5qf2pMP-71" value="" style="rounded=1;whiteSpace=wrap;html=1;" parent="1" vertex="1">
          <mxGeometry x="30" y="960" width="620" height="160" as="geometry" />
        </mxCell>
        <mxCell id="dO-Ke5plsGIxC5qf2pMP-72" value="&lt;font style=&quot;font-size: 25px;&quot;&gt;Information about activity&lt;/font&gt;" style="rounded=1;whiteSpace=wrap;html=1;" parent="1" vertex="1">
          <mxGeometry x="200" y="970" width="430" height="140" as="geometry" />
        </mxCell>
        <mxCell id="qfFioo9fjU9TVqREYKtZ-1" value="&lt;font style=&quot;font-size: 24px;&quot;&gt;All text is Font&amp;nbsp;&lt;/font&gt;&lt;div&gt;&lt;font style=&quot;&quot;&gt;&lt;font style=&quot;font-size: 24px;&quot;&gt;Montserrat&lt;/font&gt;&lt;br&gt;&lt;/font&gt;&lt;/div&gt;" style="text;strokeColor=none;align=center;fillColor=none;html=1;verticalAlign=middle;whiteSpace=wrap;rounded=0;" vertex="1" parent="1">
          <mxGeometry x="950" y="190" width="240" height="170" as="geometry" />
        </mxCell>
        <mxCell id="qfFioo9fjU9TVqREYKtZ-3" value="&lt;font style=&quot;font-size: 24px;&quot;&gt;&amp;nbsp;Background color&amp;nbsp;#CCE8EE (extremely Light blue)&lt;/font&gt;" style="text;strokeColor=none;align=center;fillColor=none;html=1;verticalAlign=middle;whiteSpace=wrap;rounded=0;" vertex="1" parent="1">
          <mxGeometry x="1060" y="400" width="240" height="30" as="geometry" />
        </mxCell>
        <mxCell id="qfFioo9fjU9TVqREYKtZ-7" value="&lt;font style=&quot;font-size: 24px;&quot;&gt;white filled with black outline and text&lt;/font&gt;" style="text;strokeColor=none;align=center;fillColor=none;html=1;verticalAlign=middle;whiteSpace=wrap;rounded=0;" vertex="1" parent="1">
          <mxGeometry x="960" y="585" width="240" height="30" as="geometry" />
        </mxCell>
        <mxCell id="qfFioo9fjU9TVqREYKtZ-15" style="edgeStyle=orthogonalEdgeStyle;rounded=0;orthogonalLoop=1;jettySize=auto;html=1;exitX=1;exitY=0.5;exitDx=0;exitDy=0;" edge="1" parent="1">
          <mxGeometry relative="1" as="geometry">
            <mxPoint x="990" y="59.57142857142867" as="targetPoint" />
            <mxPoint x="790" y="60" as="sourcePoint" />
          </mxGeometry>
        </mxCell>
        <mxCell id="qfFioo9fjU9TVqREYKtZ-14" value="&lt;font style=&quot;font-size: 24px;&quot;&gt;Goes to home page through logo click&amp;nbsp;&lt;/font&gt;" style="text;html=1;align=center;verticalAlign=middle;whiteSpace=wrap;rounded=0;" vertex="1" parent="1">
          <mxGeometry x="950" y="150" width="220" height="30" as="geometry" />
        </mxCell>
        <mxCell id="qfFioo9fjU9TVqREYKtZ-16" value="&lt;font style=&quot;font-size: 24px;&quot;&gt;Goes to users profile&lt;/font&gt;" style="text;html=1;align=center;verticalAlign=middle;whiteSpace=wrap;rounded=0;" vertex="1" parent="1">
          <mxGeometry x="1000" y="45" width="140" height="30" as="geometry" />
        </mxCell>
        <mxCell id="qfFioo9fjU9TVqREYKtZ-21" style="edgeStyle=orthogonalEdgeStyle;rounded=0;orthogonalLoop=1;jettySize=auto;html=1;exitX=1;exitY=1;exitDx=0;exitDy=0;entryX=0;entryY=0.75;entryDx=0;entryDy=0;" edge="1" parent="1" source="qfFioo9fjU9TVqREYKtZ-18" target="qfFioo9fjU9TVqREYKtZ-14">
          <mxGeometry relative="1" as="geometry" />
        </mxCell>
        <mxCell id="qfFioo9fjU9TVqREYKtZ-18" value="IMG BTN&lt;div&gt;Logo&lt;/div&gt;" style="rounded=1;whiteSpace=wrap;html=1;" vertex="1" parent="1">
          <mxGeometry x="30" y="30" width="180" height="100" as="geometry" />
        </mxCell>
        <mxCell id="qfFioo9fjU9TVqREYKtZ-19" value="User Profile Button" style="rounded=1;whiteSpace=wrap;html=1;" vertex="1" parent="1">
          <mxGeometry x="610" y="30" width="180" height="100" as="geometry" />
        </mxCell>
      </root>
    </mxGraphModel>
  </diagram>
</mxfile>
